<?xml version="1.0"?>
<svg xmlns="http://www.w3.org/2000/svg" xmlns:xlink="http://www.w3.org/1999/xlink" xmlns:svgjs="http://svgjs.com/svgjs" version="1.1" width="512" height="512" x="0" y="0" viewBox="0 0 512 512" style="enable-background:new 0 0 512 512" xml:space="preserve"><g><g xmlns="http://www.w3.org/2000/svg"><g><path d="m92.976 512c-26.11.001-52.034-11.076-70.057-32.533-15.748-18.749-23.223-42.505-21.049-66.893 2.171-24.36 13.705-46.396 32.481-62.061l285.854-243.325c22.347-18.608 55.719-15.502 74.392 6.92l.607.729c8.832 10.605 13.004 24.016 11.748 37.761-1.252 13.7-7.747 26.096-18.295 34.92l-168.506 145.015-19.605-22.781 168.781-145.249c4.437-3.693 7.17-8.893 7.695-14.641.525-5.749-1.22-11.358-4.914-15.793l-.607-.729c-8.054-9.671-22.398-11.055-32.01-3.101l-285.841 243.314c-12.627 10.516-20.385 25.321-21.844 41.689s3.558 32.312 14.127 44.895c21.662 25.79 60.34 29.236 86.219 7.685l312.281-262.687c20.494-16.873 33.13-40.724 35.578-67.158s-5.59-52.2-22.635-72.551c-16.821-20.083-40.45-32.488-66.533-34.93-26.051-2.439-51.536 5.343-71.778 21.91l-195.09 164.848-19.398-22.957 195.347-165.064c26.418-21.667 59.703-31.844 93.719-28.661 34.018 3.184 64.834 19.363 86.773 45.556 22.231 26.542 32.715 60.146 29.522 94.621-3.191 34.448-19.647 65.532-46.338 87.536l-312.159 262.584c-17.053 14.201-37.818 21.13-58.465 21.131z" fill="#000000" data-original="#000000" style=""/></g></g></g></svg>
