<?xml version="1.0"?>
<svg xmlns="http://www.w3.org/2000/svg" xmlns:xlink="http://www.w3.org/1999/xlink" xmlns:svgjs="http://svgjs.com/svgjs" version="1.1" width="512" height="512" x="0" y="0" viewBox="0 0 512 512" style="enable-background:new 0 0 512 512" xml:space="preserve" class=""><g><g xmlns="http://www.w3.org/2000/svg"><path d="m437.12 87.465v31.25h-346.423c-20.03 0-36.267 16.237-36.267 36.267v259.953h-37.39c-9.411 0-17.04-7.629-17.04-17.04v-368.5c0-9.411 7.629-17.04 17.04-17.04h169.63c5.92 0 11.31 3.42 13.82 8.78l23.09 49.29h196.5c9.411 0 17.04 7.629 17.04 17.04z" fill="#000000" data-original="#000000" style="" class=""/><path d="m494.96 148.715h-394.17c-9.03 0-16.36 7.33-16.36 16.36v317.53c0 9.41 7.63 17.04 17.04 17.04h393.49c9.41 0 17.04-7.63 17.04-17.04v-316.85c0-9.41-7.63-17.04-17.04-17.04zm-278.84 144.74c5.85-5.86 15.35-5.86 21.21 0l45.89 45.89v-127.54c0-8.28 6.71-15 15-15 8.28 0 15 6.72 15 15v127.54l45.89-45.89c5.85-5.86 15.35-5.86 21.21 0s5.86 15.35 0 21.21c0 0-69.269 69.04-71.59 71.58-5.486 6.004-15.734 5.627-21.12-.08l-71.49-71.5c-5.86-5.86-5.86-15.35 0-21.21zm204.24 143.1c0 8.28-6.71 15-15 15h-214.29c-8.28 0-15-6.72-15-15v-33.88c0-8.29 6.72-15 15-15 8.29 0 15 6.71 15 15v18.88h184.29v-18.88c0-8.29 6.72-15 15-15 8.29 0 15 6.71 15 15z" fill="#000000" data-original="#000000" style="" class=""/></g></g></svg>
